# xmcd CD database file
#
# Track frame offsets:
#	150
#	13628
#	30983
#	41415
#	53387
#	70223
#	84092
#	95787
#	112703
#	124554
#	136647
#	148472
#	161552
#	176120
#	188906
#	200826
#	212677
#	225359
#	237625
#
# Disc length: 3367 seconds
#
# Revision: 0
# Processed by: cddbd v1.5.2PL0 Copyright (c) Steve Scherf et al.
# Submitted via: CDex 1.70beta2
#
DISCID=fa0d2513
DTITLE=Chicago Stompers (I) - Sing ... It's Good For You
DYEAR=2016
DGENRE=Jazz
TTITLE0=On Revival Day
TTITLE1=Ain't Misbehavin'
TTITLE2=Goodbye Blues
TTITLE3=Doin' The New Low Down
TTITLE4=Amapola
TTITLE5=Cheerful Little Earful
TTITLE6=Dinah (Daina)
TTITLE7=Love In The Moonlight
TTITLE8=Bel Moretto
TTITLE9=L'Orso Dello Zoo
TTITLE10=Petite Fleur
TTITLE11=Sing (It's Good For You)
TTITLE12=Merry Widow's Got A Sweetie Now
TTITLE13=Quel Motivetto Che Mi Piace Tanto
TTITLE14=Postage Stomp
TTITLE15=Freshman Hop
TTITLE16=Shivery Stomp
TTITLE17=Business In F
TTITLE18=Mr. Saxobeat
EXTD=YEAR: 2016
EXTT0=
EXTT1=
EXTT2=
EXTT3=
EXTT4=
EXTT5=
EXTT6=
EXTT7=
EXTT8=
EXTT9=
EXTT10=
EXTT11=
EXTT12=
EXTT13=
EXTT14=
EXTT15=
EXTT16=
EXTT17=
EXTT18=
PLAYORDER=
